<svg preserveAspectRatio="none" width="100%" height="100%" overflow="visible" style="display: block;" viewBox="0 0 10 12" fill="none" xmlns="http://www.w3.org/2000/svg">
<path id="Vector" d="M9.86705 2.44269L7.59432 0.135C7.55207 0.0921535 7.50193 0.0581778 7.44675 0.0350141C7.39157 0.0118504 7.33244 -4.75319e-05 7.27273 1.42707e-07H2.72727C2.48617 1.42707e-07 2.25494 0.0972526 2.08445 0.270363C1.91396 0.443474 1.81818 0.678262 1.81818 0.923077V1.84615H0.909091C0.667985 1.84615 0.436754 1.94341 0.266267 2.11652C0.0957789 2.28963 0 2.52442 0 2.76923V11.0769C0 11.3217 0.0957789 11.5565 0.266267 11.7296C0.436754 11.9027 0.667985 12 0.909091 12H7.27273C7.51383 12 7.74506 11.9027 7.91555 11.7296C8.08604 11.5565 8.18182 11.3217 8.18182 11.0769V10.1538H9.09091C9.33202 10.1538 9.56325 10.0566 9.73373 9.88348C9.90422 9.71037 10 9.47558 10 9.23077V2.76923C10 2.7086 9.98833 2.64856 9.96552 2.59253C9.9427 2.5365 9.90924 2.48559 9.86705 2.44269ZM7.27273 11.0769H0.909091V2.76923H5.26648L7.27273 4.80635V9.68308C7.27273 9.68654 7.27273 9.68942 7.27273 9.69231C7.27273 9.69519 7.27273 9.69808 7.27273 9.70154V11.0769ZM9.09091 9.23077H8.18182V4.61538C8.18187 4.55476 8.17015 4.49471 8.14734 4.43868C8.12452 4.38266 8.09106 4.33174 8.04886 4.28885L5.77614 1.98115C5.73389 1.93831 5.68375 1.90433 5.62857 1.88117C5.57339 1.858 5.51425 1.84611 5.45455 1.84615H2.72727V0.923077H7.08466L9.09091 2.96019V9.23077ZM5.90909 7.38462C5.90909 7.50702 5.8612 7.62442 5.77596 7.71097C5.69071 7.79753 5.5751 7.84615 5.45455 7.84615H2.72727C2.60672 7.84615 2.4911 7.79753 2.40586 7.71097C2.32062 7.62442 2.27273 7.50702 2.27273 7.38462C2.27273 7.26221 2.32062 7.14481 2.40586 7.05826C2.4911 6.9717 2.60672 6.92308 2.72727 6.92308H5.45455C5.5751 6.92308 5.69071 6.9717 5.77596 7.05826C5.8612 7.14481 5.90909 7.26221 5.90909 7.38462ZM5.90909 9.23077C5.90909 9.35318 5.8612 9.47057 5.77596 9.55713C5.69071 9.64368 5.5751 9.69231 5.45455 9.69231H2.72727C2.60672 9.69231 2.4911 9.64368 2.40586 9.55713C2.32062 9.47057 2.27273 9.35318 2.27273 9.23077C2.27273 9.10836 2.32062 8.99097 2.40586 8.90441C2.4911 8.81786 2.60672 8.76923 2.72727 8.76923H5.45455C5.5751 8.76923 5.69071 8.81786 5.77596 8.90441C5.8612 8.99097 5.90909 9.10836 5.90909 9.23077Z" fill="var(--fill-0, #FEE6CE)"/>
</svg>
